# xmcd
# 
# Track frame offsets:
#     150
#     14247
#     34361
#     57158
#     83119
#     103200
#     117302
#     131309
#     161613
#     181788
#     193241
#     210741
# 
# Disc length: 3016
# 
# Revision: 2
# Processed by: cddbd v1.5.2PL0 Copyright (c) Steve Scherf et al.
# Submitted via: fre:ac v1.0.17
# 
DISCID=aa0bc60c
DTITLE=Lars Danielsson - Liberetto II
DYEAR=2014
DGENRE=Jazz
TTITLE0=Grace
TTITLE1=Passacaglia
TTITLE2=Miniature
TTITLE3=Africa
TTITLE4=I Tima
TTITLE5=II Blå
TTITLE6=III Violet
TTITLE7=Swedish Song
TTITLE8=Eilat
TTITLE9=View From The Apple Tree
TTITLE10=The Truth
TTITLE11=Beautiful Darkness
EXTD=YEAR: 2014
EXTT0=
EXTT1=
EXTT2=
EXTT3=
EXTT4=
EXTT5=
EXTT6=
EXTT7=
EXTT8=
EXTT9=
EXTT10=
EXTT11=
PLAYORDER=
